HIERARCHY
ROOT root
{
	OFFSET 0.000000 0.000000 0.000000
	CHANNELS 6 Xposition Yposition Zposition Zrotation Yrotation Xrotation
	JOINT lhip
	{
		OFFSET 0.058581 -0.082280 -0.017664
		CHANNELS 3 Zrotation Yrotation Xrotation
		JOINT lknee
		{
			OFFSET 0.043451 -0.386469 0.008037
			CHANNELS 3 Zrotation Yrotation Xrotation
			JOINT lankle
			{
				OFFSET -0.014790 -0.426874 -0.037428
				CHANNELS 3 Zrotation Yrotation Xrotation
				JOINT ltoe
				{
					OFFSET 0.041054 -0.060286 0.122042
					CHANNELS 3 Zrotation Yrotation Xrotation
					End Site
					{
						OFFSET 0.000000 0.000000 0.000000
					}
				}
			}
		}
	}
	JOINT rhip
	{
		OFFSET -0.060310 -0.090513 -0.013543
		CHANNELS 3 Zrotation Yrotation Xrotation
		JOINT rknee
		{
			OFFSET -0.043257 -0.383688 -0.004843
			CHANNELS 3 Zrotation Yrotation Xrotation
			JOINT rankle
			{
				OFFSET 0.019056 -0.420046 -0.034562
				CHANNELS 3 Zrotation Yrotation Xrotation
				JOINT rtoe
				{
					OFFSET -0.034840 -0.062106 0.130323
					CHANNELS 3 Zrotation Yrotation Xrotation
					End Site
					{
						OFFSET 0.000000 0.000000 0.000000
					}
				}
			}
		}
	}
	JOINT lowerback
	{
		OFFSET 0.004439 0.124404 -0.038385
		CHANNELS 3 Zrotation Yrotation Xrotation
		JOINT upperback
		{
			OFFSET 0.004488 0.137956 0.026820
			CHANNELS 3 Zrotation Yrotation Xrotation
			JOINT chest
			{
				OFFSET -0.002265 0.056032 0.002855
				CHANNELS 3 Zrotation Yrotation Xrotation
				JOINT lowerneck
				{
					OFFSET -0.013390 0.211636 -0.033468
					CHANNELS 3 Zrotation Yrotation Xrotation
					JOINT upperneck
					{
						OFFSET 0.010113 0.088937 0.050410
						CHANNELS 3 Zrotation Yrotation Xrotation
						End Site
						{
							OFFSET 0.000000 0.000000 0.000000
						}
					}
				}
				JOINT lclavicle
				{
					OFFSET 0.071702 0.114000 -0.018898
					CHANNELS 3 Zrotation Yrotation Xrotation
					JOINT lshoulder
					{
						OFFSET 0.122921 0.045205 -0.019046
						CHANNELS 3 Zrotation Yrotation Xrotation
						JOINT lelbow
						{
							OFFSET 0.255332 -0.015649 -0.022946
							CHANNELS 3 Zrotation Yrotation Xrotation
							JOINT lwrist
							{
								OFFSET 0.265709 0.012698 -0.007375
								CHANNELS 3 Zrotation Yrotation Xrotation
								End Site
								{
									OFFSET 0.000000 0.000000 0.000000
								}
							}
						}
					}
				}
				JOINT rclavicle
				{
					OFFSET -0.082954 0.112472 -0.023707
					CHANNELS 3 Zrotation Yrotation Xrotation
					JOINT rshoulder
					{
						OFFSET -0.113228 0.046853 -0.008472
						CHANNELS 3 Zrotation Yrotation Xrotation
						JOINT relbow
						{
							OFFSET -0.260127 -0.014369 -0.031269
							CHANNELS 3 Zrotation Yrotation Xrotation
							JOINT rwrist
							{
								OFFSET -0.269108 0.006794 -0.006027
								CHANNELS 3 Zrotation Yrotation Xrotation
								End Site
								{
									OFFSET 0.000000 0.000000 0.000000
								}
							}
						}
					}
				}
			}
		}
	}
}
MOTION
Frames: 17
Frame Time: 0.033333
0.325183 0.112453 0.980339 -9.593966 4.630110 100.030781 -0.319507 -5.498491 -29.850040 -2.046832 1.272396 24.976878 7.305908 15.724805 -14.377922 0.000000 -0.000000 0.000000 -5.348440 8.996959 -11.852816 2.777316 6.025919 77.315454 3.033136 -14.832944 -18.380855 0.000000 -0.000000 0.000000 0.648288 3.644932 29.502040 3.897159 0.361132 1.934266 1.638996 0.034242 4.785450 -4.187861 5.202152 -5.636712 -7.993513 -1.442008 -11.611972 -15.768776 17.425522 -2.221658 -61.902716 21.514282 -6.800950 5.365725 0.095311 23.392103 -11.919402 -5.609878 6.623547 15.614711 -13.339243 -6.292794 44.622524 -7.741950 -4.130202 -54.426290 50.564340 -56.712701 4.568312 28.622413 -58.785806 
0.324834 0.113186 0.978499 -9.289316 4.784886 102.447433 0.539927 -7.551175 -33.194940 -1.392761 2.451330 26.275429 7.685982 16.117759 -14.818019 0.000000 -0.000000 0.000000 -6.005138 9.058832 -7.070107 0.685614 7.059509 61.408429 2.909795 -18.564580 -19.168432 0.000000 -0.000000 0.000000 1.081021 4.650551 26.647108 4.311302 0.110110 1.980879 1.684467 0.204363 5.069040 -4.654063 5.072792 -5.929636 -8.492527 -0.453037 -11.505963 -14.533389 20.083054 -0.993702 -60.382297 22.228637 -8.498762 6.323441 2.164490 22.535483 -12.984018 -5.953320 6.003743 15.814312 -15.088820 -5.918192 43.579467 -7.494648 -3.438789 -53.560648 49.904019 -55.939054 5.230483 29.744268 -59.626684 
0.323738 0.115570 0.971601 -9.501290 4.603668 104.565102 1.248100 -8.927329 -36.680718 -1.160974 3.675654 28.056593 7.958699 16.886018 -16.285991 0.000000 -0.000000 0.000000 -6.752064 9.088563 -3.943648 0.529448 9.130172 47.271331 4.463379 -17.405043 -22.387753 0.000000 -0.000000 0.000000 0.854900 5.758928 24.156270 4.394499 -0.324439 1.551712 1.524496 0.506824 5.288817 -4.209183 6.114747 -6.579309 -8.742826 0.265242 -10.705346 -12.937547 22.754082 -0.560728 -57.909292 22.700101 -9.999659 7.094154 3.738630 20.516110 -12.693055 -6.747382 5.231068 16.093777 -17.709856 -5.570706 43.076137 -6.530055 -3.023349 -52.940505 50.316285 -55.080193 5.768813 30.118854 -60.281617 
0.320517 0.118206 0.964700 -10.807960 4.727028 105.150911 2.051986 -8.191922 -38.340412 -1.436913 4.923766 29.425312 7.858569 16.617382 -17.080044 0.000000 -0.000000 0.000000 -6.740614 8.323842 -1.828364 0.550263 13.317505 35.667915 4.242495 -11.561593 -21.604467 0.000000 -0.000000 0.000000 0.687435 6.890002 22.871555 4.192365 -0.890174 0.888209 1.307311 0.053774 6.179834 -4.790059 8.690625 -6.341840 -8.664533 0.741025 -10.673443 -12.741464 23.799754 -1.683961 -55.259615 23.931191 -11.315436 7.288705 4.832026 16.794304 -12.206516 -6.486274 7.193986 15.601225 -17.090735 -5.585379 44.139549 -6.568278 -2.313021 -55.414299 50.207631 -56.324272 6.213777 29.056008 -61.013927 
0.315327 0.122922 0.963726 -12.638892 5.391252 104.683153 2.861709 -5.708847 -38.105773 -1.777453 5.490411 29.362914 7.158272 15.652270 -17.059736 0.000000 -0.000000 0.000000 -5.359362 7.333061 -2.206774 0.779684 17.380100 29.588496 4.359133 -7.956743 -21.675068 0.000000 -0.000000 0.000000 0.342851 7.544645 23.337369 3.659039 -0.812101 0.136822 1.593718 0.496962 5.982166 -5.217273 9.865121 -5.576954 -7.859880 2.243285 -10.136343 -11.663465 22.704754 -1.809041 -54.645674 24.497071 -12.236085 7.213878 4.827796 16.138582 -10.277415 -6.348376 7.538608 14.766640 -16.032971 -4.353024 45.987051 -6.391073 -3.036507 -57.594643 50.303599 -57.843248 7.485494 28.123202 -60.325274 
0.309637 0.127486 0.971681 -14.292031 6.115034 103.560157 3.126060 -3.582791 -35.566280 -1.661572 4.557556 26.575305 6.347491 15.324757 -15.633680 0.000000 -0.000000 0.000000 -3.301903 6.480856 -4.448782 1.232442 17.632623 27.904104 4.698036 -7.121307 -21.187748 0.000000 -0.000000 0.000000 0.158000 7.336126 24.502774 3.222366 -0.338549 0.682022 1.718610 0.806721 5.929320 -5.850035 11.340582 -6.621519 -7.979375 2.569681 -10.837223 -13.000856 22.047940 -3.960937 -52.725493 22.771065 -10.829565 6.373270 3.616989 15.872019 -7.875458 -6.091076 7.164225 16.246116 -15.344462 -5.551457 45.764320 -4.977777 -2.805924 -58.169958 51.128929 -58.407369 8.013293 26.631131 -58.682455 
0.304876 0.131644 0.983898 -15.760233 6.834204 102.609795 3.600153 -2.519004 -32.360854 -1.062844 3.827322 22.214128 5.408581 15.217854 -13.366013 0.000000 -0.000000 0.000000 -1.411994 6.421818 -7.960167 0.964553 12.936942 27.337526 5.085382 -5.570950 -21.101763 0.000000 -0.000000 0.000000 -0.024028 6.559639 24.970328 3.068524 0.106731 1.331251 1.899463 1.174868 5.247237 -6.360081 13.060395 -5.675762 -8.586016 3.229178 -10.763513 -13.482562 20.521564 -4.271176 -52.831830 20.003369 -8.835865 5.663637 0.812145 14.254135 -5.656211 -6.036985 5.555166 16.747992 -14.442425 -5.275069 46.116066 -2.668552 -2.238421 -58.416002 51.183209 -58.170844 7.885687 25.346669 -56.958360 
0.300239 0.136749 0.996815 -17.240090 7.538844 102.183255 4.940559 -2.009543 -29.449878 -0.957429 4.139164 17.337864 4.276432 14.802735 -10.457191 0.000000 -0.000000 0.000000 0.616123 7.328784 -12.159932 0.644337 8.748641 26.049000 4.604319 -4.189197 -20.691590 0.000000 -0.000000 0.000000 -0.257105 5.466118 24.512883 3.008428 0.490367 1.689262 2.058444 1.118396 5.384049 -7.267842 15.736543 -4.982405 -9.465492 5.000979 -11.160328 -14.518225 19.038309 -4.665620 -53.071395 16.954932 -6.686277 5.231320 -4.513653 11.442548 -3.229029 -6.257132 3.155386 17.266748 -12.374364 -4.352660 46.548276 -0.011123 -1.274371 -60.120697 50.524670 -59.199557 6.697342 23.310916 -55.180738 
0.294531 0.142799 1.006305 -17.956169 8.192985 102.213094 6.522705 -0.641567 -27.943584 -1.502512 4.542651 14.290003 3.005806 12.925742 -8.658213 0.000000 -0.000000 0.000000 3.283250 7.866025 -16.622279 0.589131 7.395243 23.418909 4.147401 -2.572774 -19.333613 0.000000 -0.000000 0.000000 -0.145352 4.594992 24.382885 2.927686 0.735872 1.453656 2.357669 0.933395 4.967517 -8.277713 18.386160 -5.231314 -10.084045 8.057197 -11.442991 -14.993669 17.674297 -5.016819 -52.904232 13.679319 -4.986842 4.939348 -11.583995 8.860133 0.618086 -6.681543 0.012247 17.383519 -11.985765 -4.226669 47.149076 1.720894 -0.117264 -61.557299 51.539911 -60.046477 5.325302 21.299314 -54.192455 
0.289022 0.149724 1.010296 -17.459739 7.908794 102.313378 7.422376 -0.010380 -27.949408 -2.383321 5.546318 13.703435 2.326248 10.899951 -8.111807 0.000000 -0.000000 0.000000 5.033620 8.905238 -21.005696 1.873557 9.011907 21.231109 4.927431 -1.041939 -17.593617 0.000000 -0.000000 0.000000 -0.631499 3.753744 24.613686 3.279973 0.600835 1.198369 2.628615 0.492904 4.307759 -8.960301 20.857555 -6.733595 -10.656144 12.271113 -11.305816 -14.951824 16.687855 -5.623931 -52.968588 9.991762 -3.324159 5.672108 -20.260995 6.904150 4.146533 -6.832302 -3.843191 17.482177 -12.558288 -4.257307 47.653767 2.927144 1.577124 -64.135164 52.384138 -62.491804 5.429316 20.043522 -52.281625 
0.283757 0.155241 1.008482 -14.786735 6.904504 100.907850 6.789610 -0.205433 -27.966722 -2.733133 5.291580 15.908181 1.909950 9.124544 -8.892253 0.000000 -0.000000 0.000000 6.039732 9.799006 -22.793510 2.561849 10.277549 19.461769 6.929242 1.205393 -13.078956 0.000000 -0.000000 0.000000 -0.330270 2.478266 28.385951 3.131425 -0.445786 0.523512 3.334935 -0.344863 0.643751 -9.573446 21.965519 -5.902441 -10.127086 18.342891 -11.837603 -14.744438 13.617312 -5.992419 -52.503255 8.474942 -2.791276 7.176724 -29.677347 3.509928 6.132342 -8.059605 -7.377576 15.758154 -11.857912 -3.095182 49.054436 0.581812 1.812754 -68.548994 54.168172 -67.436435 4.866671 18.972491 -50.778702 
0.279126 0.162225 0.997040 -10.456030 4.967149 98.643378 5.133667 -2.198560 -29.120888 -2.877890 5.111473 21.218505 2.814664 7.665685 -10.560026 0.000000 -0.000000 0.000000 5.199855 10.871364 -23.578649 2.516108 8.654847 21.676902 4.498901 -1.141912 -9.423854 0.000000 -0.000000 0.000000 -0.359772 1.116732 30.975195 3.548242 -1.933260 -0.350187 3.729584 -1.486923 0.976340 -9.972502 22.789293 -6.451640 -9.206891 21.619003 -12.135752 -13.829593 9.791998 -5.974704 -53.022682 3.793418 -1.021058 10.906883 -38.196356 1.286559 8.574024 -8.283022 -9.443371 13.921314 -11.297467 -2.505893 51.275113 -1.174283 3.109274 -76.323290 53.735553 -73.774424 3.260146 16.991889 -51.920755 
0.274297 0.170125 0.979662 -5.378928 2.556754 95.657626 2.814595 -4.163388 -30.634239 -3.571825 4.499880 28.230506 2.619181 6.456099 -12.564107 0.000000 -0.000000 0.000000 3.798290 10.944938 -23.715443 1.605604 5.221514 28.775201 1.720690 -3.460982 -14.983966 0.000000 -0.000000 0.000000 -0.638760 0.069005 34.086039 3.920992 -3.796621 -2.197191 3.819387 -2.668484 2.573373 -9.427216 23.819578 -7.427542 -7.879401 22.722040 -11.091960 -12.696214 5.218151 -6.502505 -51.882071 -1.257446 0.276571 16.227050 -46.961045 -1.444988 8.045607 -9.157454 -11.263809 12.233631 -10.568950 -3.026173 53.980138 -4.379512 3.478270 -84.687833 52.727947 -79.180343 2.431745 15.643056 -53.303070 
0.267603 0.179675 0.963207 -1.594536 2.016134 92.816631 2.512405 -3.127734 -31.982074 -5.156897 3.635508 34.996255 1.179867 3.788368 -15.725898 0.000000 -0.000000 0.000000 4.161089 9.059626 -23.488952 1.229664 2.862434 33.326913 0.292616 -4.132620 -16.318280 0.000000 -0.000000 0.000000 0.171289 -0.138679 36.245260 4.161627 -5.344567 -2.947562 3.989064 -4.162873 4.927429 -9.369238 25.376071 -9.537656 -7.440822 23.847205 -10.273311 -11.846463 0.757533 -8.134710 -49.235683 -6.223867 0.470529 23.173605 -55.483262 -5.399500 8.442898 -10.218374 -11.911704 11.300601 -9.852453 -4.150890 55.955860 -6.181850 3.070789 -91.150502 52.395950 -83.091607 2.251252 15.003128 -54.010515 
0.264038 0.187597 0.954568 0.773056 2.191227 92.175825 2.667853 -1.376854 -34.017952 -6.290454 3.408385 40.932664 0.653463 3.085852 -19.497507 0.000000 -0.000000 0.000000 4.960501 6.843863 -24.076362 1.536556 3.175263 34.845907 -0.318125 -5.290058 -16.771706 0.000000 -0.000000 0.000000 0.725320 -0.608503 36.625468 4.719665 -6.513471 -2.618059 4.180770 -5.025071 4.503250 -9.271490 26.307620 -9.749391 -6.960901 26.382439 -9.683997 -12.107837 -3.853125 -8.126810 -45.028989 -10.276296 -0.565357 33.943584 -62.358239 -14.061205 10.836012 -11.013553 -12.015642 11.503644 -8.337940 -3.835744 55.908323 -6.943817 2.208910 -94.806087 52.247209 -85.715769 1.685278 14.410865 -54.072715 
0.260452 0.193908 0.955950 2.410790 2.773843 92.248208 2.623620 0.934507 -35.176778 -5.439138 4.327835 47.383251 1.124041 5.569579 -21.597888 0.000000 -0.000000 0.000000 5.720044 5.233945 -24.320596 1.462954 2.652129 34.098413 0.164760 -5.154724 -16.244185 0.000000 -0.000000 0.000000 0.446082 -1.090751 36.862909 5.503342 -7.736495 -3.133282 4.788808 -5.439257 4.428183 -9.278685 27.409434 -9.725273 -6.201286 28.365498 -9.105318 -11.759881 -7.723461 -8.197002 -41.074344 -14.114220 -1.605500 46.814644 -66.334887 -26.247463 14.060680 -9.868540 -14.228123 12.578213 -6.517808 -3.632645 54.833421 -6.325418 2.063517 -94.855616 52.468489 -85.703469 0.196957 13.364936 -53.825018 
0.258650 0.202365 0.963802 5.030241 3.530375 93.451354 3.077328 0.447824 -35.833592 -3.818413 5.815079 53.237990 1.934626 7.482270 -19.939871 0.000000 -0.000000 0.000000 5.811796 4.806517 -24.519473 1.580338 0.994234 31.050115 0.189942 -5.484438 -13.614772 0.000000 -0.000000 0.000000 1.031963 -1.969240 36.851859 6.628537 -9.339722 -5.442769 5.132770 -6.235297 5.324555 -9.407414 28.709618 -10.419399 -5.235701 29.904605 -7.513801 -10.425392 -11.671912 -7.905450 -37.796308 -18.247839 -2.751556 58.149173 -66.378597 -38.224304 16.133915 -9.899645 -14.293017 12.734821 -4.902407 -3.779693 54.874926 -5.349663 2.887813 -92.606925 52.241169 -83.522274 -0.891340 12.691464 -53.542827 
